<svg xmlns="http://www.w3.org/2000/svg" xmlns:xlink="http://www.w3.org/1999/xlink" viewBox="0 0 314.96 314.96"><defs><style>.cls-1{fill:#231f20;stroke-miterlimit:10;stroke-width:10px;stroke:url(#linear-gradient);}.cls-2{fill:url(#linear-gradient-2);}.cls-3{fill:url(#linear-gradient-3);}.cls-4{fill:url(#linear-gradient-4);}.cls-5{fill:url(#linear-gradient-5);}.cls-6{fill:url(#linear-gradient-6);}.cls-7{fill:url(#linear-gradient-7);}.cls-8{fill:url(#linear-gradient-8);}.cls-9{fill:url(#linear-gradient-9);}.cls-10{fill:url(#linear-gradient-10);}</style><linearGradient id="linear-gradient" y1="157.48" x2="314.96" y2="157.48" gradientUnits="userSpaceOnUse"><stop offset="0" stop-color="#961b1e"/><stop offset="1" stop-color="#f26764"/></linearGradient><linearGradient id="linear-gradient-2" x1="75.55" y1="158.59" x2="231.32" y2="158.59" xlink:href="#linear-gradient"/><linearGradient id="linear-gradient-3" x1="75.54" y1="104.73" x2="218.52" y2="104.73" xlink:href="#linear-gradient"/><linearGradient id="linear-gradient-4" x1="159.13" y1="170.95" x2="231.29" y2="170.95" gradientUnits="userSpaceOnUse"><stop offset="0.18" stop-color="#961b1e"/><stop offset="1" stop-color="#f26764"/></linearGradient><linearGradient id="linear-gradient-5" x1="159.13" y1="137.62" x2="231.97" y2="137.62" xlink:href="#linear-gradient"/><linearGradient id="linear-gradient-6" x1="159.13" y1="149.07" x2="228.99" y2="149.07" xlink:href="#linear-gradient"/><linearGradient id="linear-gradient-7" x1="162.46" y1="85.43" x2="210.2" y2="126.53" xlink:href="#linear-gradient"/><linearGradient id="linear-gradient-8" x1="222.15" y1="55.01" x2="231.2" y2="55.01" xlink:href="#linear-gradient"/><linearGradient id="linear-gradient-9" x1="78.57" y1="224.35" x2="231.29" y2="224.35" xlink:href="#linear-gradient"/><linearGradient id="linear-gradient-10" x1="224.51" y1="24.62" x2="239.42" y2="24.62" xlink:href="#linear-gradient"/></defs><g id="Layer_2" data-name="Layer 2"><g id="Layer_1-2" data-name="Layer 1"><rect class="cls-1" x="5" y="5" width="304.96" height="304.96" rx="76.5"/><path class="cls-2" d="M231.29,165.09a98.13,98.13,0,0,1-5.42,24.5c-.05.14-.1.29-.16.44-7.58,21.19-25.33,48.73-66.57,52.34,0,0-3.92.16-10.08-.2a132,132,0,0,1-30.39-5.28c10.79-21.93,26.79-29.1,35.07-31.41a45.11,45.11,0,0,0,5.4-1.07h.17l.08,0h0l.11,0A12.82,12.82,0,0,0,161,204a21.82,21.82,0,0,0,9.52-6.3c3.4-3.69,6.74-9.37,8.73-18.13.05-.21.09-.41.14-.61a85.29,85.29,0,0,0,1.72-18.1c0-1.24,0-2.45-.06-3.62-.55-19.36-5.3-29.82-9.8-35.41a22.22,22.22,0,0,0-4.81-4.52,12.66,12.66,0,0,0-3.43-1.7h-.12s-34.8-9.6-43.18,16.33c-.09.29-.19.57-.27.86a4.19,4.19,0,0,0-.14.47c-.12.4-.22.81-.32,1.23l-43.4-9.19s0-.11,0-.32A57.77,57.77,0,0,1,91.89,94.41l.33-.32c8.47-8.24,21.16-15.59,40.13-18.26l.57-.07a128.37,128.37,0,0,1,29.31-.31l.63.06a62.1,62.1,0,0,1,13.2,2l.15,0a70.71,70.71,0,0,1,30.38,16.27l.17.16a68.24,68.24,0,0,1,13.32,17.17,86.17,86.17,0,0,1,8.57,23.55.52.52,0,0,1,0,.11c.15.7.3,1.42.43,2.14.06.29.12.59.17.89a0,0,0,0,0,0,0,116.89,116.89,0,0,1,1.55,11.86,1.36,1.36,0,0,1,0,.2c.24,2.85.38,5.8.44,8.87C231.33,160.87,231.33,163,231.29,165.09Z"/><path class="cls-3" d="M119,134.46l-43.41-9.19s7.66-51.07,70-50c0,0,22-2,43.4,6.13,0,0,20.94,4.65,29.62-6.35,0,0-21.19,47.38-55.66,40.56C131.23,109.31,121.5,123.73,119,134.46Z"/><path class="cls-4" d="M229,137.27s-11.29,59.23-69.86,67.14c0,0,58.63,6.9,72.16-56.68C231.29,147.73,230.52,140.33,229,137.27Z"/><path class="cls-5" d="M159.13,204.41s25-5.44,21.94-43.57c0,0,5.45-33-18.21-45.28,0,0,30.81,8.06,55.66-40.56,0,0,5.73-11.19,8.85,3.12,9.29,42.55,1.62,59.15,1.62,59.15C225,150.28,217.53,191.48,159.13,204.41Z"/><path class="cls-6" d="M229,137.27s-2.21-26.06-22.29-43.54c0,0-18.23,24.39-43.84,21.83,0,0,18.12,5.62,18.21,45.28,0,0,2,36.94-21.94,43.57C159.13,204.41,208.82,204.63,229,137.27Z"/><path class="cls-7" d="M220.22,112.5s-22.81,21.11-57.36,3.06c0,0,24.53,2,43.84-21.83C206.7,93.73,220.56,107.39,220.22,112.5Z"/><path class="cls-8" d="M231.05,53.48c-.77,3.44-1.22,8.87-5.33,8.67C222.39,62,222.23,57,222.23,57s-.84-8.16,3-9S231.89,50.63,231.05,53.48Z"/><path class="cls-9" d="M78.57,178.83c6.93,9.26,12.26,42.21,50.08,33.43,10.89-2.53,20.68-5.55,25.09-6.77a29.62,29.62,0,0,1,5.4-1.07C206,204.8,223,174,228.65,157.61c.08-.21.15-.41.21-.62a67.88,67.88,0,0,0,2-7c.24-1.06.36-1.77.41-2.08l0-.16V165.1c0,3.56-1.17,13.19-5.42,24.5-.05.14-.1.29-.16.44-8.54,22.41-29.18,51.11-76.65,52.14-.66,0-1.34,0-2,0a36.41,36.41,0,0,0-17.23,4.29l-.2-.27c-28.26,11-20.32,41-13,54.73l-38-.34V178.83"/><path class="cls-10" d="M237.52,22.26c-3.73,3.56-3.1,10.27-7.79,12.66-4.34,2.2-5.1-7.55-5.1-7.55S223.41,15.45,229,14.24,243.29,16.76,237.52,22.26Z"/></g></g></svg>